# xmcd
#
# Track frame offsets: 
#        150
#        15468
#        32580
#        45723
#
# Disc length: 776 seconds
#
# Revision: 2
# Processed by: cddbd v1.5.2PL0 Copyright (c) Steve Scherf et al.
# Submitted via: ExactAudioCopy v0.99pb5
#
DISCID=24030604
DTITLE=The Pierces - Love You More E.P.
DYEAR=2010
DGENRE=Pop
TTITLE0=Love You More
TTITLE1=We Are Stars
TTITLE2=To The Grave
TTITLE3=We Can Make It
EXTD=
EXTT0=
EXTT1=
EXTT2=
EXTT3=
PLAYORDER=
